<svg width="32" height="33" viewBox="0 0 32 33" fill="none" xmlns="http://www.w3.org/2000/svg">
<path d="M28 4.17725H4C2.89543 4.17725 2 5.07268 2 6.17725V22.1772C2 23.2818 2.89543 24.1772 4 24.1772H28C29.1046 24.1772 30 23.2818 30 22.1772V6.17725C30 5.07268 29.1046 4.17725 28 4.17725Z" stroke="#5CFF46" stroke-width="2" stroke-linejoin="round"/>
<path d="M19 28.1772L18.5 24.1772H13.5L13 28.1772H19Z" fill="#5CFF46" stroke="#5CFF46" stroke-width="2" stroke-linecap="round" stroke-linejoin="round"/>
<path d="M23 28.1772H9" stroke="#5CFF46" stroke-width="2" stroke-linecap="round" stroke-linejoin="round"/>
<path d="M2 19.1772V22.1772C2.00148 22.7072 2.21267 23.2151 2.58743 23.5898C2.96218 23.9646 3.47002 24.1758 4 24.1772H28C28.53 24.1758 29.0378 23.9646 29.4126 23.5898C29.7873 23.2151 29.9985 22.7072 30 22.1772V19.1772H2ZM16 23.1772C15.8022 23.1772 15.6089 23.1186 15.4444 23.0087C15.28 22.8988 15.1518 22.7427 15.0761 22.5599C15.0004 22.3772 14.9806 22.1761 15.0192 21.9822C15.0578 21.7882 15.153 21.61 15.2929 21.4701C15.4327 21.3303 15.6109 21.235 15.8049 21.1965C15.9989 21.1579 16.2 21.1777 16.3827 21.2534C16.5654 21.3291 16.7216 21.4572 16.8315 21.6217C16.9414 21.7861 17 21.9795 17 22.1772C17 22.4425 16.8946 22.6968 16.7071 22.8844C16.5196 23.0719 16.2652 23.1772 16 23.1772Z" fill="#5CFF46"/>
</svg>
