<svg width="50" height="50" viewBox="0 0 50 50" fill="none" xmlns="http://www.w3.org/2000/svg">
<circle cx="25" cy="25" r="25" fill="url(#paint0_linear_65_92)"/>
<path d="M18.112 36.32C16.2987 36.32 14.5067 35.9893 12.736 35.328C10.9653 34.6667 9.38667 33.7493 8 32.576L11.072 28.576C12.4373 29.6853 13.696 30.4853 14.848 30.976C16 31.4453 17.2267 31.68 18.528 31.68C19.3813 31.68 20.1067 31.5947 20.704 31.424C21.3013 31.2533 21.76 31.008 22.08 30.688C22.4 30.3467 22.56 29.952 22.56 29.504C22.56 28.8853 22.3253 28.4053 21.856 28.064C21.3867 27.7227 20.5867 27.456 19.456 27.264L14.528 26.4C12.7147 26.08 11.3173 25.3867 10.336 24.32C9.35467 23.2533 8.864 21.8987 8.864 20.256C8.864 18.8053 9.22667 17.5573 9.952 16.512C10.6987 15.4667 11.7547 14.6667 13.12 14.112C14.5067 13.5573 16.1493 13.28 18.048 13.28C19.712 13.28 21.3867 13.568 23.072 14.144C24.7573 14.6987 26.2187 15.4773 27.456 16.48L24.544 20.544C22.24 18.7733 19.9467 17.888 17.664 17.888C16.9173 17.888 16.2667 17.9733 15.712 18.144C15.1787 18.2933 14.7627 18.5173 14.464 18.816C14.1867 19.0933 14.048 19.4347 14.048 19.84C14.048 20.3947 14.2507 20.8213 14.656 21.12C15.0827 21.4187 15.7653 21.6533 16.704 21.824L21.344 22.592C23.4987 22.9333 25.1307 23.648 26.24 24.736C27.3707 25.824 27.936 27.232 27.936 28.96C27.936 30.4747 27.5413 31.7867 26.752 32.896C25.9627 33.984 24.832 34.8267 23.36 35.424C21.888 36.0213 20.1387 36.32 18.112 36.32ZM30.8658 36.32C28.4977 36.32 26.5031 35.7333 24.8817 34.56C23.2817 33.3653 22.1404 31.648 21.4577 29.408L26.5458 27.52C26.9724 28.8213 27.5378 29.7813 28.2418 30.4C28.9458 31.0187 29.8311 31.328 30.8977 31.328C32.0924 31.328 33.0631 30.9333 33.8098 30.144C34.5564 29.3547 34.9298 28.32 34.9298 27.04V13.6H40.4338V27.2C40.4338 29.0133 40.0284 30.6027 39.2178 31.968C38.4284 33.3333 37.3191 34.4 35.8898 35.168C34.4604 35.936 32.7858 36.32 30.8658 36.32Z" fill="white"/>
<defs>
<linearGradient id="paint0_linear_65_92" x1="8" y1="7.5" x2="45" y2="43" gradientUnits="userSpaceOnUse">
<stop stop-color="#4D4E4C"/>
<stop offset="1"/>
</linearGradient>
</defs>
</svg>
