<svg id="GameController" width="40" height="40" viewBox="0 0 40 40" fill="currentColor" xmlns="http://www.w3.org/2000/svg">
<path d="M37.7438 19.1704C36.0868 11.679 33.593 7.68056 29.8938 6.58837C29.1162 6.36028 28.3096 6.24633 27.4993 6.25009C26.4282 6.25009 25.4954 6.51103 24.5086 6.78759C23.3196 7.12118 21.9688 7.50009 19.9993 7.50009C18.0297 7.50009 16.6782 7.12196 15.4868 6.78837C14.4993 6.51103 13.5672 6.25009 12.4993 6.25009C11.6613 6.24718 10.827 6.36077 10.0204 6.58759C6.34067 7.67509 3.84848 11.672 2.16723 19.1657C0.359422 27.2298 1.24927 32.3212 4.66255 33.5024C5.13042 33.6674 5.62271 33.7524 6.1188 33.754C8.45708 33.754 10.3321 31.8063 11.6133 30.2118C13.061 28.4071 14.7555 27.4915 19.9993 27.4915C24.6829 27.4915 26.6211 28.1267 28.2954 30.2118C29.3477 31.5227 30.3422 32.4399 31.3344 33.0173C32.654 33.7845 33.9727 33.9548 35.2532 33.5149C37.2704 32.8267 38.4266 31.0071 38.6907 28.1056C38.8915 25.8806 38.5821 22.9579 37.7438 19.1704ZM16.2493 18.7501H13.7493V21.2501C13.7493 21.5816 13.6176 21.8996 13.3831 22.134C13.1487 22.3684 12.8308 22.5001 12.4993 22.5001C12.1677 22.5001 11.8498 22.3684 11.6154 22.134C11.381 21.8996 11.2493 21.5816 11.2493 21.2501V18.7501H8.74927C8.41775 18.7501 8.0998 18.6184 7.86538 18.384C7.63096 18.1496 7.49927 17.8316 7.49927 17.5001C7.49927 17.1686 7.63096 16.8506 7.86538 16.6162C8.0998 16.3818 8.41775 16.2501 8.74927 16.2501H11.2493V13.7501C11.2493 13.4186 11.381 13.1006 11.6154 12.8662C11.8498 12.6318 12.1677 12.5001 12.4993 12.5001C12.8308 12.5001 13.1487 12.6318 13.3831 12.8662C13.6176 13.1006 13.7493 13.4186 13.7493 13.7501V16.2501H16.2493C16.5808 16.2501 16.8987 16.3818 17.1331 16.6162C17.3676 16.8506 17.4993 17.1686 17.4993 17.5001C17.4993 17.8316 17.3676 18.1496 17.1331 18.384C16.8987 18.6184 16.5808 18.7501 16.2493 18.7501ZM22.8118 19.0626C22.5027 19.0626 22.2006 18.971 21.9437 18.7993C21.6867 18.6276 21.4865 18.3835 21.3682 18.098C21.2499 17.8125 21.219 17.4984 21.2793 17.1953C21.3396 16.8922 21.4884 16.6138 21.7069 16.3952C21.9254 16.1767 22.2038 16.0279 22.5069 15.9676C22.81 15.9073 23.1242 15.9383 23.4097 16.0565C23.6952 16.1748 23.9392 16.3751 24.1109 16.632C24.2826 16.889 24.3743 17.1911 24.3743 17.5001C24.3743 17.9145 24.2096 18.3119 23.9166 18.6049C23.6236 18.898 23.2262 19.0626 22.8118 19.0626ZM26.2493 22.5001C25.9401 22.5001 25.6378 22.4083 25.3808 22.2365C25.1237 22.0646 24.9235 21.8204 24.8053 21.5346C24.6872 21.2489 24.6565 20.9345 24.7171 20.6313C24.7777 20.3281 24.9269 20.0497 25.1458 19.8314C25.3647 19.613 25.6435 19.4645 25.9468 19.4046C26.2502 19.3448 26.5645 19.3763 26.8499 19.4952C27.1354 19.614 27.3791 19.8149 27.5503 20.0724C27.7216 20.3298 27.8125 20.6323 27.8118 20.9415C27.8107 21.3552 27.6457 21.7516 27.3527 22.0438C27.0598 22.336 26.663 22.5001 26.2493 22.5001ZM26.2493 15.6251C25.9402 15.6251 25.6381 15.5335 25.3812 15.3618C25.1242 15.1901 24.924 14.946 24.8057 14.6605C24.6874 14.375 24.6565 14.0609 24.7168 13.7578C24.7771 13.4547 24.9259 13.1763 25.1444 12.9577C25.3629 12.7392 25.6413 12.5904 25.9444 12.5301C26.2475 12.4698 26.5617 12.5008 26.8472 12.619C27.1327 12.7373 27.3767 12.9376 27.5484 13.1945C27.7201 13.4515 27.8118 13.7536 27.8118 14.0626C27.8118 14.477 27.6471 14.8744 27.3541 15.1674C27.0611 15.4605 26.6637 15.6251 26.2493 15.6251ZM29.6868 19.0626C29.3777 19.0626 29.0756 18.971 28.8187 18.7993C28.5617 18.6276 28.3615 18.3835 28.2432 18.098C28.1249 17.8125 28.094 17.4984 28.1543 17.1953C28.2146 16.8922 28.3634 16.6138 28.5819 16.3952C28.8004 16.1767 29.0788 16.0279 29.3819 15.9676C29.685 15.9073 29.9992 15.9383 30.2847 16.0565C30.5702 16.1748 30.8142 16.3751 30.9859 16.632C31.1576 16.889 31.2493 17.1911 31.2493 17.5001C31.2493 17.9145 31.0846 18.3119 30.7916 18.6049C30.4986 18.898 30.1012 19.0626 29.6868 19.0626Z" fill="currentColor"/>
</svg>
