<svg width="32" height="31" viewBox="0 0 32 31" fill="none" xmlns="http://www.w3.org/2000/svg">
<path d="M12.7454 0C11.2836 0.32497 9.83752 0.77748 8.4818 1.45986C8.51281 2.65697 8.59019 3.80397 8.74708 4.96906C8.22058 5.30638 7.66726 5.59589 7.17549 5.99076C6.67584 6.37516 6.16546 6.74285 5.71303 7.19241C4.80917 6.59457 3.85265 6.03272 2.86711 5.5368C1.80479 6.68008 0.811422 7.91408 0 9.29492C0.637691 10.2959 1.32166 11.302 1.95509 12.0866V18.9066V19.7729V20.5613C1.9706 20.5614 1.98621 20.5619 2.00157 20.5633L7.19706 21.0643C7.46921 21.0906 7.68245 21.3097 7.7014 21.5824L7.86165 23.8759L12.3937 24.1993L12.7058 22.0825C12.7463 21.8081 12.9818 21.6046 13.2594 21.6046H18.7408C19.0183 21.6046 19.2537 21.8081 19.2942 22.0825L19.6063 24.1993L24.1385 23.8759L24.2986 21.5824C24.3177 21.3097 24.5308 21.0907 24.8029 21.0643L29.9964 20.5633C30.0117 20.5619 30.0272 20.5614 30.0427 20.5613V19.885L30.0449 19.8844V12.0866C30.7765 11.1655 31.4692 10.1497 32 9.29492C31.1889 7.91408 30.195 6.68008 29.1327 5.5368C28.1475 6.03272 27.1905 6.59457 26.2866 7.19241C25.8343 6.74285 25.3249 6.37516 24.8245 5.99076C24.3329 5.59589 23.7788 5.30638 23.2533 4.96906C23.4098 3.80397 23.4872 2.65697 23.5184 1.45986C22.1625 0.77748 20.7166 0.32497 19.2541 0C18.6701 0.981371 18.1362 2.0442 17.6711 3.08313C17.1197 2.99097 16.5657 2.95681 16.0109 2.95021V2.94928C16.007 2.94928 16.0034 2.95021 16.0001 2.95021C15.9967 2.95021 15.9929 2.94928 15.9895 2.94928V2.95021C15.4337 2.95681 14.8801 2.99097 14.3285 3.08313C13.8637 2.0442 13.3302 0.981371 12.7454 0ZM8.63498 12.3974C10.3643 12.3974 11.7661 13.798 11.7661 15.5268C11.7661 17.2567 10.3643 18.6581 8.63498 18.6581C6.9065 18.6581 5.50445 17.2567 5.50445 15.5268C5.50445 13.798 6.9065 12.3974 8.63498 12.3974ZM23.3654 12.3974C25.0937 12.3974 26.4955 13.798 26.4955 15.5268C26.4955 17.2567 25.0937 18.6581 23.3654 18.6581C21.6358 18.6581 20.2341 17.2567 20.2341 15.5268C20.2341 13.798 21.6358 12.3974 23.3654 12.3974ZM15.9997 14.2287C16.5564 14.2287 17.0086 14.6393 17.0086 15.1446V18.0269C17.0086 18.5326 16.5564 18.9429 15.9997 18.9429C15.4431 18.9429 14.992 18.5326 14.992 18.0269V15.1446C14.992 14.6393 15.4431 14.2287 15.9997 14.2287Z" fill="#5CFF46"/>
<path d="M25.3825 22.1333L25.2216 24.4389C25.2022 24.7168 24.9811 24.938 24.7032 24.958L19.1691 25.3529C19.1556 25.3539 19.1421 25.3543 19.1288 25.3543C18.8538 25.3543 18.6165 25.1525 18.5759 24.8763L18.2585 22.7241H13.743L13.4256 24.8763C13.383 25.166 13.124 25.3742 12.8323 25.3528L7.29823 24.958C7.02034 24.938 6.79929 24.7168 6.77991 24.4389L6.619 22.1333L1.94727 21.6829C1.94942 22.185 1.95588 22.735 1.95588 22.8445C1.95588 27.7785 8.21486 30.15 15.9912 30.1773H16.0007H16.0103C23.7866 30.15 30.0434 27.7785 30.0434 22.8445C30.0434 22.733 30.0502 22.1852 30.0525 21.6829L25.3825 22.1333Z" fill="#5CFF46"/>
<path d="M11.014 15.7126C11.014 16.86 10.084 17.79 8.93571 17.79C7.78798 17.79 6.85742 16.86 6.85742 15.7126C6.85742 14.5651 7.78798 13.6343 8.93571 13.6343C10.084 13.6343 11.014 14.5651 11.014 15.7126Z" fill="#5CFF46"/>
<path d="M20.9883 15.7126C20.9883 16.86 21.918 17.79 23.0654 17.79C24.214 17.79 25.1437 16.86 25.1437 15.7126C25.1437 14.5651 24.214 13.6343 23.0654 13.6343C21.918 13.6343 20.9883 14.5651 20.9883 15.7126Z" fill="#5CFF46"/>
</svg>
