<svg xmlns="http://www.w3.org/2000/svg">
    <defs>
        <svg id="GameController" viewBox="0 0 40 40"><path d="M37.7438 19.1704C36.0868 11.679 33.593 7.68056 29.8938 6.58837C29.1162 6.36028 28.3096 6.24633 27.4993 6.25009C26.4282 6.25009 25.4954 6.51103 24.5086 6.78759C23.3196 7.12118 21.9688 7.50009 19.9993 7.50009C18.0297 7.50009 16.6782 7.12196 15.4868 6.78837C14.4993 6.51103 13.5672 6.25009 12.4993 6.25009C11.6613 6.24718 10.827 6.36077 10.0204 6.58759C6.34067 7.67509 3.84848 11.672 2.16723 19.1657C0.359422 27.2298 1.24927 32.3212 4.66255 33.5024C5.13042 33.6674 5.62271 33.7524 6.1188 33.754C8.45708 33.754 10.3321 31.8063 11.6133 30.2118C13.061 28.4071 14.7555 27.4915 19.9993 27.4915C24.6829 27.4915 26.6211 28.1267 28.2954 30.2118C29.3477 31.5227 30.3422 32.4399 31.3344 33.0173C32.654 33.7845 33.9727 33.9548 35.2532 33.5149C37.2704 32.8267 38.4266 31.0071 38.6907 28.1056C38.8915 25.8806 38.5821 22.9579 37.7438 19.1704ZM16.2493 18.7501H13.7493V21.2501C13.7493 21.5816 13.6176 21.8996 13.3831 22.134C13.1487 22.3684 12.8308 22.5001 12.4993 22.5001C12.1677 22.5001 11.8498 22.3684 11.6154 22.134C11.381 21.8996 11.2493 21.5816 11.2493 21.2501V18.7501H8.74927C8.41775 18.7501 8.0998 18.6184 7.86538 18.384C7.63096 18.1496 7.49927 17.8316 7.49927 17.5001C7.49927 17.1686 7.63096 16.8506 7.86538 16.6162C8.0998 16.3818 8.41775 16.2501 8.74927 16.2501H11.2493V13.7501C11.2493 13.4186 11.381 13.1006 11.6154 12.8662C11.8498 12.6318 12.1677 12.5001 12.4993 12.5001C12.8308 12.5001 13.1487 12.6318 13.3831 12.8662C13.6176 13.1006 13.7493 13.4186 13.7493 13.7501V16.2501H16.2493C16.5808 16.2501 16.8987 16.3818 17.1331 16.6162C17.3676 16.8506 17.4993 17.1686 17.4993 17.5001C17.4993 17.8316 17.3676 18.1496 17.1331 18.384C16.8987 18.6184 16.5808 18.7501 16.2493 18.7501ZM22.8118 19.0626C22.5027 19.0626 22.2006 18.971 21.9437 18.7993C21.6867 18.6276 21.4865 18.3835 21.3682 18.098C21.2499 17.8125 21.219 17.4984 21.2793 17.1953C21.3396 16.8922 21.4884 16.6138 21.7069 16.3952C21.9254 16.1767 22.2038 16.0279 22.5069 15.9676C22.81 15.9073 23.1242 15.9383 23.4097 16.0565C23.6952 16.1748 23.9392 16.3751 24.1109 16.632C24.2826 16.889 24.3743 17.1911 24.3743 17.5001C24.3743 17.9145 24.2096 18.3119 23.9166 18.6049C23.6236 18.898 23.2262 19.0626 22.8118 19.0626ZM26.2493 22.5001C25.9401 22.5001 25.6378 22.4083 25.3808 22.2365C25.1237 22.0646 24.9235 21.8204 24.8053 21.5346C24.6872 21.2489 24.6565 20.9345 24.7171 20.6313C24.7777 20.3281 24.9269 20.0497 25.1458 19.8314C25.3647 19.613 25.6435 19.4645 25.9468 19.4046C26.2502 19.3448 26.5645 19.3763 26.8499 19.4952C27.1354 19.614 27.3791 19.8149 27.5503 20.0724C27.7216 20.3298 27.8125 20.6323 27.8118 20.9415C27.8107 21.3552 27.6457 21.7516 27.3527 22.0438C27.0598 22.336 26.663 22.5001 26.2493 22.5001ZM26.2493 15.6251C25.9402 15.6251 25.6381 15.5335 25.3812 15.3618C25.1242 15.1901 24.924 14.946 24.8057 14.6605C24.6874 14.375 24.6565 14.0609 24.7168 13.7578C24.7771 13.4547 24.9259 13.1763 25.1444 12.9577C25.3629 12.7392 25.6413 12.5904 25.9444 12.5301C26.2475 12.4698 26.5617 12.5008 26.8472 12.619C27.1327 12.7373 27.3767 12.9376 27.5484 13.1945C27.7201 13.4515 27.8118 13.7536 27.8118 14.0626C27.8118 14.477 27.6471 14.8744 27.3541 15.1674C27.0611 15.4605 26.6637 15.6251 26.2493 15.6251ZM29.6868 19.0626C29.3777 19.0626 29.0756 18.971 28.8187 18.7993C28.5617 18.6276 28.3615 18.3835 28.2432 18.098C28.1249 17.8125 28.094 17.4984 28.1543 17.1953C28.2146 16.8922 28.3634 16.6138 28.5819 16.3952C28.8004 16.1767 29.0788 16.0279 29.3819 15.9676C29.685 15.9073 29.9992 15.9383 30.2847 16.0565C30.5702 16.1748 30.8142 16.3751 30.9859 16.632C31.1576 16.889 31.2493 17.1911 31.2493 17.5001C31.2493 17.9145 31.0846 18.3119 30.7916 18.6049C30.4986 18.898 30.1012 19.0626 29.6868 19.0626Z" fill="currentColor"/></svg>
        <svg id="Godot" viewBox="0 0 32 31" fill="currentColor"><path d="M12.7454 0C11.2836 0.32497 9.83752 0.77748 8.4818 1.45986C8.51281 2.65697 8.59019 3.80397 8.74708 4.96906C8.22058 5.30638 7.66726 5.59589 7.17549 5.99076C6.67584 6.37516 6.16546 6.74285 5.71303 7.19241C4.80917 6.59457 3.85265 6.03272 2.86711 5.5368C1.80479 6.68008 0.811422 7.91408 0 9.29492C0.637691 10.2959 1.32166 11.302 1.95509 12.0866V18.9066V19.7729V20.5613C1.9706 20.5614 1.98621 20.5619 2.00157 20.5633L7.19706 21.0643C7.46921 21.0906 7.68245 21.3097 7.7014 21.5824L7.86165 23.8759L12.3937 24.1993L12.7058 22.0825C12.7463 21.8081 12.9818 21.6046 13.2594 21.6046H18.7408C19.0183 21.6046 19.2537 21.8081 19.2942 22.0825L19.6063 24.1993L24.1385 23.8759L24.2986 21.5824C24.3177 21.3097 24.5308 21.0907 24.8029 21.0643L29.9964 20.5633C30.0117 20.5619 30.0272 20.5614 30.0427 20.5613V19.885L30.0449 19.8844V12.0866C30.7765 11.1655 31.4692 10.1497 32 9.29492C31.1889 7.91408 30.195 6.68008 29.1327 5.5368C28.1475 6.03272 27.1905 6.59457 26.2866 7.19241C25.8343 6.74285 25.3249 6.37516 24.8245 5.99076C24.3329 5.59589 23.7788 5.30638 23.2533 4.96906C23.4098 3.80397 23.4872 2.65697 23.5184 1.45986C22.1625 0.77748 20.7166 0.32497 19.2541 0C18.6701 0.981371 18.1362 2.0442 17.6711 3.08313C17.1197 2.99097 16.5657 2.95681 16.0109 2.95021V2.94928C16.007 2.94928 16.0034 2.95021 16.0001 2.95021C15.9967 2.95021 15.9929 2.94928 15.9895 2.94928V2.95021C15.4337 2.95681 14.8801 2.99097 14.3285 3.08313C13.8637 2.0442 13.3302 0.981371 12.7454 0ZM8.63498 12.3974C10.3643 12.3974 11.7661 13.798 11.7661 15.5268C11.7661 17.2567 10.3643 18.6581 8.63498 18.6581C6.9065 18.6581 5.50445 17.2567 5.50445 15.5268C5.50445 13.798 6.9065 12.3974 8.63498 12.3974ZM23.3654 12.3974C25.0937 12.3974 26.4955 13.798 26.4955 15.5268C26.4955 17.2567 25.0937 18.6581 23.3654 18.6581C21.6358 18.6581 20.2341 17.2567 20.2341 15.5268C20.2341 13.798 21.6358 12.3974 23.3654 12.3974ZM15.9997 14.2287C16.5564 14.2287 17.0086 14.6393 17.0086 15.1446V18.0269C17.0086 18.5326 16.5564 18.9429 15.9997 18.9429C15.4431 18.9429 14.992 18.5326 14.992 18.0269V15.1446C14.992 14.6393 15.4431 14.2287 15.9997 14.2287Z" fill="currentColor"/><path d="M25.3825 22.1333L25.2216 24.4389C25.2022 24.7168 24.9811 24.938 24.7032 24.958L19.1691 25.3529C19.1556 25.3539 19.1421 25.3543 19.1288 25.3543C18.8538 25.3543 18.6165 25.1525 18.5759 24.8763L18.2585 22.7241H13.743L13.4256 24.8763C13.383 25.166 13.124 25.3742 12.8323 25.3528L7.29823 24.958C7.02034 24.938 6.79929 24.7168 6.77991 24.4389L6.619 22.1333L1.94727 21.6829C1.94942 22.185 1.95588 22.735 1.95588 22.8445C1.95588 27.7785 8.21486 30.15 15.9912 30.1773H16.0007H16.0103C23.7866 30.15 30.0434 27.7785 30.0434 22.8445C30.0434 22.733 30.0502 22.1852 30.0525 21.6829L25.3825 22.1333Z" fill="currentColor"/><path d="M11.014 15.7126C11.014 16.86 10.084 17.79 8.93571 17.79C7.78798 17.79 6.85742 16.86 6.85742 15.7126C6.85742 14.5651 7.78798 13.6343 8.93571 13.6343C10.084 13.6343 11.014 14.5651 11.014 15.7126Z" fill="currentColor"/><path d="M20.9883 15.7126C20.9883 16.86 21.918 17.79 23.0654 17.79C24.214 17.79 25.1437 16.86 25.1437 15.7126C25.1437 14.5651 24.214 13.6343 23.0654 13.6343C21.918 13.6343 20.9883 14.5651 20.9883 15.7126Z" fill="currentColor"/></svg>
        <svg id="Desktop" viewBox="0 0 32 33" fill="transparent"><path fill-Rule="evenodd" d="M28 4.17725H4C2.89543 4.17725 2 5.07268 2 6.17725V22.1772C2 23.2818 2.89543 24.1772 4 24.1772H28C29.1046 24.1772 30 23.2818 30 22.1772V6.17725C30 5.07268 29.1046 4.17725 28 4.17725Z" stroke="currentColor" stroke-width="2" stroke-linejoin="round"/><path d="M19 28.1772L18.5 24.1772H13.5L13 28.1772H19Z" fill="currentColor" stroke="currentColor" stroke-width="2" stroke-linecap="round" stroke-linejoin="round"/><path d="M23 28.1772H9" stroke="currentColor" stroke-width="2" stroke-linecap="round" stroke-linejoin="round"/><path d="M2 19.1772V22.1772C2.00148 22.7072 2.21267 23.2151 2.58743 23.5898C2.96218 23.9646 3.47002 24.1758 4 24.1772H28C28.53 24.1758 29.0378 23.9646 29.4126 23.5898C29.7873 23.2151 29.9985 22.7072 30 22.1772V19.1772H2ZM16 23.1772C15.8022 23.1772 15.6089 23.1186 15.4444 23.0087C15.28 22.8988 15.1518 22.7427 15.0761 22.5599C15.0004 22.3772 14.9806 22.1761 15.0192 21.9822C15.0578 21.7882 15.153 21.61 15.2929 21.4701C15.4327 21.3303 15.6109 21.235 15.8049 21.1965C15.9989 21.1579 16.2 21.1777 16.3827 21.2534C16.5654 21.3291 16.7216 21.4572 16.8315 21.6217C16.9414 21.7861 17 21.9795 17 22.1772C17 22.4425 16.8946 22.6968 16.7071 22.8844C16.5196 23.0719 16.2652 23.1772 16 23.1772Z" fill="currentColor"/></svg>
        <svg id="OpenAI" viewBox="0 0 32 33"><g clip-path="url(#clip0_21_896)"><path d="M29.7086 13.272C30.0664 12.1945 30.1901 11.0531 30.0716 9.92393C29.953 8.79479 29.5948 7.70395 29.021 6.72428C28.1703 5.24351 26.8713 4.07115 25.3114 3.37622C23.7514 2.68129 22.0111 2.4997 20.3413 2.85761C19.3926 1.80236 18.183 1.01531 16.8339 0.575496C15.4848 0.135684 14.0437 0.0585994 12.6554 0.351985C11.2671 0.64537 9.98038 1.2989 8.92456 2.24692C7.86874 3.19495 7.08096 4.40411 6.64034 5.75295C5.52789 5.98106 4.47695 6.444 3.55775 7.1108C2.63854 7.77761 1.87225 8.63294 1.31007 9.61961C0.45012 11.0979 0.0825815 12.8114 0.260595 14.5123C0.438608 16.2133 1.15295 17.8135 2.30034 19.0817C1.94123 20.1587 1.81624 21.3 1.93374 22.4291C2.05124 23.5583 2.40852 24.6494 2.98167 25.6293C3.83346 27.1107 5.13356 28.2833 6.69462 28.9782C8.25567 29.6731 9.99706 29.8545 11.6678 29.4961C12.4215 30.3449 13.3476 31.0231 14.3842 31.4854C15.4209 31.9477 16.5442 32.1836 17.6793 32.1772C19.3908 32.1788 21.0585 31.6365 22.4418 30.6285C23.825 29.6206 24.8522 28.1992 25.375 26.5695C26.4873 26.341 27.5381 25.8779 28.4573 25.2111C29.3764 24.5443 30.1428 23.6891 30.7053 22.7027C31.5551 21.2266 31.9163 19.5195 31.7373 17.8257C31.5583 16.1319 30.8482 14.5379 29.7086 13.272ZM17.6793 30.0828C16.2776 30.085 14.9198 29.5937 13.8441 28.6951L14.0333 28.5879L20.4043 24.9103C20.5629 24.8173 20.6946 24.6846 20.7864 24.5254C20.8782 24.3661 20.9269 24.1857 20.9279 24.0019V15.0193L23.6213 16.5775C23.6346 16.5842 23.6461 16.594 23.6549 16.6061C23.6637 16.6181 23.6696 16.6321 23.6719 16.6468V24.0903C23.6686 25.6786 23.0361 27.2009 21.913 28.324C20.7899 29.447 19.2676 30.0795 17.6793 30.0828ZM4.79834 24.5823C4.09537 23.3684 3.84297 21.9456 4.08554 20.564L4.27487 20.6776L10.6522 24.3552C10.81 24.4478 10.9896 24.4966 11.1726 24.4966C11.3556 24.4966 11.5352 24.4478 11.693 24.3552L19.4834 19.8639V22.9737C19.4827 22.9899 19.4783 23.0056 19.4706 23.0198C19.463 23.034 19.4522 23.0463 19.4391 23.0557L12.9861 26.7775C11.6089 27.5708 9.9732 27.7853 8.43809 27.3737C6.90297 26.9621 5.59392 25.9582 4.79834 24.5823ZM3.12047 10.7047C3.82832 9.48304 4.94558 8.55125 6.27447 8.07428V15.6439C6.27207 15.8268 6.3188 16.0069 6.40977 16.1656C6.50075 16.3242 6.63264 16.4556 6.79167 16.5459L14.5442 21.0183L11.8507 22.5763C11.8362 22.584 11.8199 22.5881 11.8034 22.5881C11.7869 22.5881 11.7707 22.584 11.7561 22.5763L5.31567 18.8609C3.94109 18.0642 2.93827 16.7551 2.52683 15.2205C2.11538 13.6859 2.32885 12.0508 3.12047 10.6732V10.7047ZM25.2489 15.8457L17.4711 11.3292L20.1583 9.77721C20.1729 9.76947 20.1892 9.76543 20.2057 9.76543C20.2222 9.76543 20.2384 9.76947 20.253 9.77721L26.6934 13.4989C27.6781 14.0672 28.4809 14.9038 29.008 15.9111C29.5351 16.9184 29.7648 18.0549 29.6702 19.1879C29.5756 20.3209 29.1607 21.4035 28.4739 22.3095C27.7871 23.2155 26.8567 23.9075 25.7914 24.3045V16.7349C25.7858 16.5524 25.7329 16.3744 25.6377 16.2185C25.5426 16.0626 25.4087 15.9342 25.2489 15.8457ZM27.9298 11.8149L27.7405 11.7013L21.3758 7.99228C21.217 7.89911 21.0363 7.84999 20.8522 7.84999C20.6681 7.84999 20.4874 7.89911 20.3286 7.99228L12.5447 12.4835V9.37375C12.5431 9.35794 12.5457 9.34197 12.5524 9.32754C12.5591 9.3131 12.5695 9.30074 12.5826 9.29175L19.023 5.57628C20.0101 5.00764 21.1387 4.7318 22.2768 4.78102C23.4149 4.83025 24.5154 5.20251 25.4497 5.85426C26.384 6.50601 27.1134 7.41031 27.5526 8.46139C27.9919 9.51247 28.1227 10.6669 27.9299 11.7896L27.9298 11.8149ZM11.0747 17.3279L8.38141 15.7761C8.36793 15.768 8.35641 15.7571 8.34765 15.744C8.3389 15.7309 8.33312 15.7161 8.33074 15.7005V8.27615C8.33222 7.13718 8.65792 6.02217 9.26974 5.06148C9.88157 4.10079 10.7542 3.33413 11.7857 2.85113C12.8172 2.36813 13.9649 2.18876 15.0946 2.33398C16.2242 2.47921 17.2892 2.94303 18.165 3.67121L17.9757 3.77855L11.6047 7.45588C11.4462 7.54888 11.3145 7.68152 11.2227 7.84079C11.1309 8.00005 11.0821 8.18046 11.0811 8.36428L11.0747 17.3279ZM12.5382 14.174L16.0075 12.1743L19.4834 14.174V18.1732L16.0202 20.1728L12.5446 18.1732L12.5382 14.174Z" fill="currentColor"/></g><defs><clipPath id="clip0_21_896"><rect width="32" height="32" fill="white" transform="translate(0 0.177246)"/></clipPath></defs></svg>
        <svg id="Terminal" viewBox="0 0 38 38" fill="transparent"><path fill-Rule="evenodd" d="M33.8438 6.53125H4.15625V31.4688H33.8438V6.53125Z" stroke="currentColor" stroke-width="2" stroke-linecap="round" stroke-linejoin="round"/><path d="M20.7812 24.3438H26.7188M11.2812 13.6562L17.2188 19L11.2812 24.3438" stroke="currentColor" stroke-width="2" stroke-linecap="round" stroke-linejoin="round"/></svg>
        <svg id="Phone" viewBox="0 0 32 32" fill="transparent"><path fill-Rule="evenodd" d="M21 1H11C9.34315 1 8 2.34315 8 4V28C8 29.6569 9.34315 31 11 31H21C22.6569 31 24 29.6569 24 28V4C24 2.34315 22.6569 1 21 1Z" stroke="currentColor" stroke-width="2" stroke-linecap="round" stroke-linejoin="round"/><path d="M11 1H12.5C12.6326 1 12.7598 1.05268 12.8536 1.14645C12.9473 1.24021 13 1.36739 13 1.5C13 1.76522 13.1054 2.01957 13.2929 2.20711C13.4804 2.39464 13.7348 2.5 14 2.5H18C18.2652 2.5 18.5196 2.39464 18.7071 2.20711C18.8946 2.01957 19 1.76522 19 1.5C19 1.36739 19.0527 1.24021 19.1464 1.14645C19.2402 1.05268 19.3674 1 19.5 1H21" stroke="currentColor" stroke-width="2" stroke-linecap="round" stroke-linejoin="round"/></svg>
        <svg id="Puzzle" viewBox="0 0 32 32" fill="transparent"><path fill-Rule="evenodd" d="M25.8538 15.3813H24.125C24.0918 15.3813 24.0601 15.3682 24.0366 15.3447C24.0132 15.3213 24 15.2895 24 15.2563V10.4288C24 9.7847 23.7441 9.16694 23.2886 8.71146C22.8332 8.25598 22.2154 8.0001 21.5713 8.0001H16.7437C16.7106 8.0001 16.6788 7.98693 16.6554 7.96349C16.6319 7.94004 16.6187 7.90825 16.6187 7.8751V6.14635C16.6187 4.4501 15.275 3.0301 13.5787 3.00072C13.1678 2.9935 12.7595 3.0682 12.3777 3.22045C11.9959 3.37271 11.6482 3.59948 11.355 3.88752C11.0618 4.17556 10.8289 4.51912 10.6698 4.89814C10.5108 5.27716 10.4289 5.68406 10.4288 6.0951V7.8751C10.4288 7.90825 10.4156 7.94004 10.3921 7.96349C10.3687 7.98693 10.3369 8.0001 10.3038 8.0001H5.47625C4.82012 8.00208 4.19142 8.2636 3.72746 8.72756C3.2635 9.19152 3.00198 9.82021 3 10.4763V14.8751C3 14.9082 3.01317 14.94 3.03661 14.9635C3.06005 14.9869 3.09185 15.0001 3.125 15.0001H4.80688C6.6425 15.0001 8.16188 16.5926 8.1875 18.4282C8.21375 20.2951 6.71812 22.0001 4.85687 22.0001H3.125C3.09185 22.0001 3.06005 22.0133 3.03661 22.0367C3.01317 22.0602 3 22.0919 3 22.1251V26.5238C3.00198 27.18 3.2635 27.8087 3.72746 28.2726C4.19142 28.7366 4.82012 28.9981 5.47625 29.0001H9.875C9.90815 29.0001 9.93995 28.9869 9.96339 28.9635C9.98683 28.94 10 28.9082 10 28.8751V27.567C10 25.6745 11.5469 24.0451 13.4375 24.0007C15.3188 23.957 17 25.2701 17 27.1432V28.8751C17 28.9082 17.0132 28.94 17.0366 28.9635C17.0601 28.9869 17.0918 29.0001 17.125 29.0001H21.5713C22.2154 29.0001 22.8332 28.7442 23.2886 28.2887C23.7441 27.8333 24 27.2155 24 26.5713V21.6963C24 21.6632 24.0132 21.6314 24.0366 21.608C24.0601 21.5845 24.0918 21.5713 24.125 21.5713H25.905C27.6319 21.5713 29 20.1545 29 18.4213C29 16.6882 27.55 15.3813 25.8538 15.3813Z" stroke="currentColor" stroke-width="2" stroke-linecap="round" stroke-linejoin="round"/></svg>
        <svg id="Arrow" viewBox="0 0 17 18" fill="transparent"><path fill-Rule="evenodd" d="M3.24706 2.72256L15.3336 2.13103L14.804 14.2205M14.4575 3.01165L1.66604 15.8687" stroke="currentColor" stroke-width="3" stroke-linecap="round" stroke-linejoin="round"/></svg>
        <svg id='Angular' viewBox="0 0 24 24" fill="none"><path d="M10.0117 11.9998H13.9891L12.0002 7.81104L10.0117 11.9998Z" fill="currentColor"/><path d="M12 1.5L1.5 5.25L3.66188 18L12 22.5L20.332 18L22.5 5.25L12 1.5ZM16.125 16.5L14.8786 13.875H9.12094L7.875 16.5H6L12 3.375L18 16.5H16.125Z" fill="currentColor"/></svg>
        <svg id="Capacitor" viewBox="0 0 24 24" fill="none"><path d="M22.5 4.73859L17.4548 9.78375L22.4639 14.8022L19.2155 18.0506L5.93953 4.77422L9.1875 1.52531L14.2064 6.53531L19.2502 1.5L22.5 4.73859ZM1.52578 9.1875L4.77422 5.93859L18.0502 19.2155L14.8017 22.4639L9.78609 17.4544L4.73813 22.5L1.5 19.2502L6.53531 14.2059L1.52578 9.1875Z" fill="currentColor"/></svg>
        <svg id="Ionic" viewBox="0 0 24 24" fill="none"><path d="M12.0008 7.21387C11.0542 7.21387 10.1289 7.49456 9.34186 8.02044C8.55482 8.54633 7.94139 9.29379 7.57915 10.1683C7.21692 11.0428 7.12214 12.0051 7.30681 12.9335C7.49147 13.8619 7.94729 14.7146 8.61661 15.384C9.28594 16.0533 10.1387 16.5091 11.0671 16.6938C11.9955 16.8784 12.9578 16.7837 13.8323 16.4214C14.7068 16.0592 15.4543 15.4458 15.9801 14.6587C16.506 13.8717 16.7867 12.9464 16.7867 11.9998C16.7851 10.731 16.2804 9.51461 15.3832 8.61742C14.486 7.72023 13.2696 7.21548 12.0008 7.21387Z" fill="currentColor"/><path d="M18.872 7.63908C20.0764 7.63908 21.0527 6.66278 21.0527 5.45846C21.0527 4.25413 20.0764 3.27783 18.872 3.27783C17.6677 3.27783 16.6914 4.25413 16.6914 5.45846C16.6914 6.66278 17.6677 7.63908 18.872 7.63908Z" fill="currentColor"/><path d="M21.5559 7.65002L21.4645 7.4494L21.3188 7.6144C20.9616 8.01998 20.5098 8.33107 20.0034 8.52002L19.8628 8.57158L19.92 8.70893C20.3558 9.75135 20.5795 10.8702 20.5781 12C20.5781 16.7306 16.7297 20.5781 12 20.5781C7.27031 20.5781 3.42188 16.7306 3.42188 12C3.42188 7.2694 7.26938 3.4219 12 3.4219C13.2722 3.41924 14.5287 3.7028 15.6764 4.25158L15.8109 4.31252L15.8695 4.17565C16.0832 3.67943 16.4158 3.24347 16.838 2.90627L17.01 2.76893L16.8145 2.6719C15.3277 1.89863 13.6759 1.49657 12 1.50002C6.21047 1.50002 1.5 6.21049 1.5 12C1.5 17.7896 6.21047 22.5 12 22.5C17.7895 22.5 22.5 17.7896 22.5 12C22.5025 10.4989 22.1804 9.01505 21.5559 7.65002Z" fill="currentColor"/></svg>
        <svg id="Download" viewBox="0 0 24 24" fill="none"><path d="M15.75 8.25H17.625C18.1223 8.25 18.5992 8.44754 18.9508 8.79917C19.3025 9.15081 19.5 9.62772 19.5 10.125V19.875C19.5 20.3723 19.3025 20.8492 18.9508 21.2008C18.5992 21.5525 18.1223 21.75 17.625 21.75H6.375C5.87772 21.75 5.40081 21.5525 5.04917 21.2008C4.69754 20.8492 4.5 20.3723 4.5 19.875V10.125C4.5 9.62772 4.69754 9.15081 5.04917 8.79917C5.40081 8.44754 5.87772 8.25 6.375 8.25H8.25" stroke="currentColor" stroke-width="1.5" stroke-linecap="round" stroke-linejoin="round"/><path d="M8.25 12.75L12 16.5L15.75 12.75M12 2.25V15.75" stroke="currentColor" stroke-width="1.5" stroke-linecap="round" stroke-linejoin="round"/></svg>
        <svg id="Nextjs" viewBox="0 0 256 256" preserveAspectRatio="xMidYMid"><g><path d="M119.616813,0.0688905149 C119.066276,0.118932037 117.314565,0.294077364 115.738025,0.419181169 C79.3775171,3.69690087 45.3192571,23.3131775 23.7481916,53.4631946 C11.7364614,70.2271045 4.05395894,89.2428829 1.15112414,109.384595 C0.12512219,116.415429 0,118.492153 0,128.025062 C0,137.557972 0.12512219,139.634696 1.15112414,146.665529 C8.10791789,194.730411 42.3163245,235.11392 88.7116325,250.076335 C97.0197458,252.753556 105.778299,254.580072 115.738025,255.680985 C119.616813,256.106338 136.383187,256.106338 140.261975,255.680985 C157.453763,253.779407 172.017986,249.525878 186.382014,242.194795 C188.584164,241.068861 189.00958,240.768612 188.709286,240.518404 C188.509091,240.36828 179.124927,227.782837 167.86393,212.570214 L147.393939,184.922273 L121.743891,146.965779 C107.630108,126.098464 96.0187683,109.034305 95.9186706,109.034305 C95.8185728,109.009284 95.7184751,125.873277 95.6684262,146.465363 C95.5933529,182.52028 95.5683284,183.971484 95.1178886,184.82219 C94.4672532,186.048207 93.9667644,186.548623 92.915738,187.099079 C92.114956,187.499411 91.4142717,187.574474 87.6355816,187.574474 L83.3063539,187.574474 L82.1552297,186.848872 C81.4044966,186.373477 80.8539589,185.747958 80.4785924,185.022356 L79.9530792,183.896422 L80.0031281,133.729796 L80.0782014,83.5381493 L80.8539589,82.5623397 C81.25435,82.0369037 82.1051808,81.3613431 82.7057674,81.0360732 C83.7317693,80.535658 84.1321603,80.4856165 88.4613881,80.4856165 C93.5663734,80.4856165 94.4172043,80.6857826 95.7434995,82.1369867 C96.1188661,82.5373189 110.007429,103.454675 126.623656,128.650581 C143.239883,153.846488 165.962072,188.250034 177.122972,205.139048 L197.392766,235.839522 L198.418768,235.163961 C207.502639,229.259062 217.112023,220.852086 224.719453,212.09482 C240.910264,193.504394 251.345455,170.835585 254.848876,146.665529 C255.874878,139.634696 256,137.557972 256,128.025062 C256,118.492153 255.874878,116.415429 254.848876,109.384595 C247.892082,61.3197135 213.683675,20.9362052 167.288368,5.97379012 C159.105376,3.32158945 150.396872,1.49507389 140.637341,0.394160408 C138.234995,0.143952798 121.693842,-0.131275573 119.616813,0.0688905149 L119.616813,0.0688905149 Z M172.017986,77.4831252 C173.219159,78.0836234 174.195112,79.2345784 174.545455,80.435575 C174.74565,81.0861148 174.795699,94.9976579 174.74565,126.348671 L174.670577,171.336 L166.73783,159.17591 L158.780059,147.01582 L158.780059,114.313685 C158.780059,93.1711423 158.880156,81.2862808 159.030303,80.7108033 C159.430694,79.3096407 160.306549,78.2087272 161.507722,77.5581875 C162.533724,77.0327515 162.909091,76.98271 166.837928,76.98271 C170.541544,76.98271 171.19218,77.0327515 172.017986,77.4831252 Z" fill="currentColor"></path></g></svg>
        <svg id="Vercel" viewBox="0 0 512 512" fill="currentColor" ><path fill-rule="evenodd" d="M256,48,496,464H16Z"/></svg>
        <svg id="TailwindCSS" viewBox="0 0 54 33" fill="currentColor"><g clip-path="url(#prefix__clip0)"><path fill="currentColor" fill-rule="evenodd" d="M27 0c-7.2 0-11.7 3.6-13.5 10.8 2.7-3.6 5.85-4.95 9.45-4.05 2.054.513 3.522 2.004 5.147 3.653C30.744 13.09 33.808 16.2 40.5 16.2c7.2 0 11.7-3.6 13.5-10.8-2.7 3.6-5.85 4.95-9.45 4.05-2.054-.513-3.522-2.004-5.147-3.653C36.756 3.11 33.692 0 27 0zM13.5 16.2C6.3 16.2 1.8 19.8 0 27c2.7-3.6 5.85-4.95 9.45-4.05 2.054.514 3.522 2.004 5.147 3.653C17.244 29.29 20.308 32.4 27 32.4c7.2 0 11.7-3.6 13.5-10.8-2.7 3.6-5.85 4.95-9.45 4.05-2.054-.513-3.522-2.004-5.147-3.653C23.256 19.31 20.192 16.2 13.5 16.2z" clip-rule="evenodd"/></g><defs><clipPath id="prefix__clip0"><path fill="currentColor" d="M0 0h54v32.4H0z"/></clipPath></defs></svg>
    </defs>
</svg>
