<svg viewBox="0 0 24 24" fill="none"><path d="M12.0008 7.21387C11.0542 7.21387 10.1289 7.49456 9.34186 8.02044C8.55482 8.54633 7.94139 9.29379 7.57915 10.1683C7.21692 11.0428 7.12214 12.0051 7.30681 12.9335C7.49147 13.8619 7.94729 14.7146 8.61661 15.384C9.28594 16.0533 10.1387 16.5091 11.0671 16.6938C11.9955 16.8784 12.9578 16.7837 13.8323 16.4214C14.7068 16.0592 15.4543 15.4458 15.9801 14.6587C16.506 13.8717 16.7867 12.9464 16.7867 11.9998C16.7851 10.731 16.2804 9.51461 15.3832 8.61742C14.486 7.72023 13.2696 7.21548 12.0008 7.21387Z" fill="currentColor"/><path d="M18.872 7.63908C20.0764 7.63908 21.0527 6.66278 21.0527 5.45846C21.0527 4.25413 20.0764 3.27783 18.872 3.27783C17.6677 3.27783 16.6914 4.25413 16.6914 5.45846C16.6914 6.66278 17.6677 7.63908 18.872 7.63908Z" fill="currentColor"/><path d="M21.5559 7.65002L21.4645 7.4494L21.3188 7.6144C20.9616 8.01998 20.5098 8.33107 20.0034 8.52002L19.8628 8.57158L19.92 8.70893C20.3558 9.75135 20.5795 10.8702 20.5781 12C20.5781 16.7306 16.7297 20.5781 12 20.5781C7.27031 20.5781 3.42188 16.7306 3.42188 12C3.42188 7.2694 7.26938 3.4219 12 3.4219C13.2722 3.41924 14.5287 3.7028 15.6764 4.25158L15.8109 4.31252L15.8695 4.17565C16.0832 3.67943 16.4158 3.24347 16.838 2.90627L17.01 2.76893L16.8145 2.6719C15.3277 1.89863 13.6759 1.49657 12 1.50002C6.21047 1.50002 1.5 6.21049 1.5 12C1.5 17.7896 6.21047 22.5 12 22.5C17.7895 22.5 22.5 17.7896 22.5 12C22.5025 10.4989 22.1804 9.01505 21.5559 7.65002Z" fill="currentColor"/></svg>