<svg width="32" height="33" viewBox="0 0 32 33" fill="none" xmlns="http://www.w3.org/2000/svg">
<g clip-path="url(#clip0_21_896)">
<path d="M29.7086 13.272C30.0664 12.1945 30.1901 11.0531 30.0716 9.92393C29.953 8.79479 29.5948 7.70395 29.021 6.72428C28.1703 5.24351 26.8713 4.07115 25.3114 3.37622C23.7514 2.68129 22.0111 2.4997 20.3413 2.85761C19.3926 1.80236 18.183 1.01531 16.8339 0.575496C15.4848 0.135684 14.0437 0.0585994 12.6554 0.351985C11.2671 0.64537 9.98038 1.2989 8.92456 2.24692C7.86874 3.19495 7.08096 4.40411 6.64034 5.75295C5.52789 5.98106 4.47695 6.444 3.55775 7.1108C2.63854 7.77761 1.87225 8.63294 1.31007 9.61961C0.45012 11.0979 0.0825815 12.8114 0.260595 14.5123C0.438608 16.2133 1.15295 17.8135 2.30034 19.0817C1.94123 20.1587 1.81624 21.3 1.93374 22.4291C2.05124 23.5583 2.40852 24.6494 2.98167 25.6293C3.83346 27.1107 5.13356 28.2833 6.69462 28.9782C8.25567 29.6731 9.99706 29.8545 11.6678 29.4961C12.4215 30.3449 13.3476 31.0231 14.3842 31.4854C15.4209 31.9477 16.5442 32.1836 17.6793 32.1772C19.3908 32.1788 21.0585 31.6365 22.4418 30.6285C23.825 29.6206 24.8522 28.1992 25.375 26.5695C26.4873 26.341 27.5381 25.8779 28.4573 25.2111C29.3764 24.5443 30.1428 23.6891 30.7053 22.7027C31.5551 21.2266 31.9163 19.5195 31.7373 17.8257C31.5583 16.1319 30.8482 14.5379 29.7086 13.272ZM17.6793 30.0828C16.2776 30.085 14.9198 29.5937 13.8441 28.6951L14.0333 28.5879L20.4043 24.9103C20.5629 24.8173 20.6946 24.6846 20.7864 24.5254C20.8782 24.3661 20.9269 24.1857 20.9279 24.0019V15.0193L23.6213 16.5775C23.6346 16.5842 23.6461 16.594 23.6549 16.6061C23.6637 16.6181 23.6696 16.6321 23.6719 16.6468V24.0903C23.6686 25.6786 23.0361 27.2009 21.913 28.324C20.7899 29.447 19.2676 30.0795 17.6793 30.0828ZM4.79834 24.5823C4.09537 23.3684 3.84297 21.9456 4.08554 20.564L4.27487 20.6776L10.6522 24.3552C10.81 24.4478 10.9896 24.4966 11.1726 24.4966C11.3556 24.4966 11.5352 24.4478 11.693 24.3552L19.4834 19.8639V22.9737C19.4827 22.9899 19.4783 23.0056 19.4706 23.0198C19.463 23.034 19.4522 23.0463 19.4391 23.0557L12.9861 26.7775C11.6089 27.5708 9.9732 27.7853 8.43809 27.3737C6.90297 26.9621 5.59392 25.9582 4.79834 24.5823ZM3.12047 10.7047C3.82832 9.48304 4.94558 8.55125 6.27447 8.07428V15.6439C6.27207 15.8268 6.3188 16.0069 6.40977 16.1656C6.50075 16.3242 6.63264 16.4556 6.79167 16.5459L14.5442 21.0183L11.8507 22.5763C11.8362 22.584 11.8199 22.5881 11.8034 22.5881C11.7869 22.5881 11.7707 22.584 11.7561 22.5763L5.31567 18.8609C3.94109 18.0642 2.93827 16.7551 2.52683 15.2205C2.11538 13.6859 2.32885 12.0508 3.12047 10.6732V10.7047ZM25.2489 15.8457L17.4711 11.3292L20.1583 9.77721C20.1729 9.76947 20.1892 9.76543 20.2057 9.76543C20.2222 9.76543 20.2384 9.76947 20.253 9.77721L26.6934 13.4989C27.6781 14.0672 28.4809 14.9038 29.008 15.9111C29.5351 16.9184 29.7648 18.0549 29.6702 19.1879C29.5756 20.3209 29.1607 21.4035 28.4739 22.3095C27.7871 23.2155 26.8567 23.9075 25.7914 24.3045V16.7349C25.7858 16.5524 25.7329 16.3744 25.6377 16.2185C25.5426 16.0626 25.4087 15.9342 25.2489 15.8457ZM27.9298 11.8149L27.7405 11.7013L21.3758 7.99228C21.217 7.89911 21.0363 7.84999 20.8522 7.84999C20.6681 7.84999 20.4874 7.89911 20.3286 7.99228L12.5447 12.4835V9.37375C12.5431 9.35794 12.5457 9.34197 12.5524 9.32754C12.5591 9.3131 12.5695 9.30074 12.5826 9.29175L19.023 5.57628C20.0101 5.00764 21.1387 4.7318 22.2768 4.78102C23.4149 4.83025 24.5154 5.20251 25.4497 5.85426C26.384 6.50601 27.1134 7.41031 27.5526 8.46139C27.9919 9.51247 28.1227 10.6669 27.9299 11.7896L27.9298 11.8149ZM11.0747 17.3279L8.38141 15.7761C8.36793 15.768 8.35641 15.7571 8.34765 15.744C8.3389 15.7309 8.33312 15.7161 8.33074 15.7005V8.27615C8.33222 7.13718 8.65792 6.02217 9.26974 5.06148C9.88157 4.10079 10.7542 3.33413 11.7857 2.85113C12.8172 2.36813 13.9649 2.18876 15.0946 2.33398C16.2242 2.47921 17.2892 2.94303 18.165 3.67121L17.9757 3.77855L11.6047 7.45588C11.4462 7.54888 11.3145 7.68152 11.2227 7.84079C11.1309 8.00005 11.0821 8.18046 11.0811 8.36428L11.0747 17.3279ZM12.5382 14.174L16.0075 12.1743L19.4834 14.174V18.1732L16.0202 20.1728L12.5446 18.1732L12.5382 14.174Z" fill="#5CFF46"/>
</g>
<defs>
<clipPath id="clip0_21_896">
<rect width="32" height="32" fill="white" transform="translate(0 0.177246)"/>
</clipPath>
</defs>
</svg>
