<svg width="32" height="32" viewBox="0 0 32 32" fill="none" xmlns="http://www.w3.org/2000/svg"><path d="M21 1H11C9.34315 1 8 2.34315 8 4V28C8 29.6569 9.34315 31 11 31H21C22.6569 31 24 29.6569 24 28V4C24 2.34315 22.6569 1 21 1Z" stroke="#DF4A57" stroke-width="2" stroke-linecap="round" stroke-linejoin="round"/><path d="M11 1H12.5C12.6326 1 12.7598 1.05268 12.8536 1.14645C12.9473 1.24021 13 1.36739 13 1.5C13 1.76522 13.1054 2.01957 13.2929 2.20711C13.4804 2.39464 13.7348 2.5 14 2.5H18C18.2652 2.5 18.5196 2.39464 18.7071 2.20711C18.8946 2.01957 19 1.76522 19 1.5C19 1.36739 19.0527 1.24021 19.1464 1.14645C19.2402 1.05268 19.3674 1 19.5 1H21" stroke="#DF4A57" stroke-width="2" stroke-linecap="round" stroke-linejoin="round"/></svg>